<?xml version="1.0" encoding="iso-8859-1"?>
<!-- Generator: Adobe Illustrator 19.0.0, SVG Export Plug-In . SVG Version: 6.00 Build 0)  -->
<svg xmlns="http://www.w3.org/2000/svg" xmlns:xlink="http://www.w3.org/1999/xlink" version="1.1" id="Layer_1" x="0px" y="0px" viewBox="0 0 512 512" style="enable-background:new 0 0 512 512;" xml:space="preserve" width="512px" height="512px">
<g>
	<g>
		<path d="M140.016,251.179c-8.077,0-14.629,6.552-14.629,14.629h29.257C154.645,257.731,148.093,251.179,140.016,251.179z" fill="#c0c0c0"/>
	</g>
</g>
<g>
	<g>
		<path d="M371.984,251.179c-8.077,0-14.629,6.552-14.629,14.629h29.257C386.612,257.731,380.061,251.179,371.984,251.179z" fill="#c0c0c0"/>
	</g>
</g>
<g>
	<g>
		<rect x="256" y="184.83" width="15.673" height="15.673" fill="#c0c0c0"/>
	</g>
</g>
<g>
	<g>
		<path d="M440.947,153.487h-50.7l-59.132-74.772c-5.483-6.934-13.698-10.91-22.538-10.91H123.754l-25.965,85.682H60.604    c-27.367,0-49.633,22.266-49.633,49.633v12.539h15.673v-12.539c0-18.725,15.234-33.959,33.959-33.959h42.998h5.815h273.243h3.795    h54.492c24.487,0,44.408,19.921,44.408,44.408v2.09h15.673v-2.09C501.029,180.439,474.076,153.487,440.947,153.487z     M114.166,153.487l21.216-70.008h16.901l-21.216,70.008H114.166z M147.446,153.487l21.216-70.008h69.075l55.365,70.008H147.446z     M313.084,153.487l-55.365-70.008h50.859c4.018,0,7.752,1.808,10.244,4.959l51.442,65.049H313.084z" fill="#c0c0c0"/>
	</g>
</g>
<g>
	<g>
		<path d="M461.845,228.719v15.673h34.482v12.539h-55.436c-1.954-15.386-8.963-29.597-20.171-40.635    c-13.074-12.877-30.383-19.969-48.736-19.969c-18.354,0-35.662,7.092-48.737,19.969c-3.848,3.79-7.188,7.961-10.011,12.419    H198.765c-2.823-4.458-6.164-8.629-10.012-12.419c-13.074-12.877-30.382-19.969-48.736-19.969s-35.662,7.092-48.737,19.969    c-11.208,11.038-18.217,25.249-20.171,40.635H15.673v-12.539h34.482v-15.673H0v43.886h86.101l0.129-7.706    c0.487-29.168,24.616-52.898,53.787-52.898c29.171,0,53.3,23.73,53.787,52.898l0.128,7.706h124.137l0.129-7.706    c0.487-29.168,24.616-52.898,53.787-52.898s53.3,23.73,53.787,52.898l0.128,7.706H512v-43.886H461.845z M303.076,256.932h-94.153    c-0.544-4.288-1.496-8.48-2.808-12.543h99.768C304.572,248.451,303.621,252.643,303.076,256.932z" fill="#c0c0c0"/>
	</g>
</g>
<g>
	<g>
		<path d="M170.77,234.11c-8.577-8.415-19.826-12.937-31.617-12.698c-24.011,0.46-43.545,20.378-43.545,44.401v26.117    c0,7.203,5.859,13.061,13.061,13.061h42.841v107.854h15.673V304.992h4.18c7.202,0,13.061-5.859,13.061-13.061v-25.395    C184.424,254.442,179.447,242.623,170.77,234.11z M139.453,237.084c7.536-0.152,14.793,2.772,20.34,8.215    c3.598,3.53,6.222,7.921,7.67,12.673h-55.07C115.79,246.155,126.631,237.328,139.453,237.084z M168.751,289.318h-57.469v-15.673    h57.469V289.318z" fill="#c0c0c0"/>
	</g>
</g>
<g>
	<g>
		<path d="M402.737,234.109c-8.577-8.414-19.854-12.936-31.617-12.697c-24.01,0.459-43.545,20.377-43.545,44.4v26.117    c0,7.202,5.859,13.061,13.061,13.061h4.18v97.405h15.673v-97.405h22.988v81.732h15.673v-81.732h4.18    c7.202,0,13.061-5.859,13.061-13.061v-25.395C416.392,254.441,411.414,242.622,402.737,234.109z M371.42,237.084    c7.536-0.152,14.793,2.772,20.34,8.215c3.598,3.53,6.223,7.921,7.671,12.673h-55.07    C347.758,246.155,358.599,237.328,371.42,237.084z M400.718,289.318h-57.469v-15.673h57.469V289.318z" fill="#c0c0c0"/>
	</g>
</g>
<g>
	<g>
		<rect x="112.849" y="319.852" width="15.673" height="61.649" fill="#c0c0c0"/>
	</g>
</g>
<g>
	<g>
		<rect x="112.849" y="397.175" width="15.673" height="15.673" fill="#c0c0c0"/>
	</g>
</g>
<g>
	<g>
		<rect x="151.51" y="428.522" width="15.673" height="15.673" fill="#c0c0c0"/>
	</g>
</g>
<g>
	<g>
		<rect x="383.478" y="402.399" width="15.673" height="15.673" fill="#c0c0c0"/>
	</g>
</g>
<g>
	<g>
		<rect x="344.816" y="418.073" width="15.673" height="15.673" fill="#c0c0c0"/>
	</g>
</g>
<g>
</g>
<g>
</g>
<g>
</g>
<g>
</g>
<g>
</g>
<g>
</g>
<g>
</g>
<g>
</g>
<g>
</g>
<g>
</g>
<g>
</g>
<g>
</g>
<g>
</g>
<g>
</g>
<g>
</g>
</svg>
